<?xml version="1.0" encoding="UTF-8"?>
<svg width="24" height="24" viewBox="0 0 24 24" fill="none" xmlns="http://www.w3.org/2000/svg">
  <path d="M2 12C2 12 5.5 9 12 9C18.5 9 22 12 22 12" stroke="currentColor" stroke-width="2" stroke-linecap="round" stroke-linejoin="round"/>
  <path d="M2 16C2 16 5.5 13 12 13C18.5 13 22 16 22 16" stroke="currentColor" stroke-width="2" stroke-linecap="round" stroke-linejoin="round"/>
  <path d="M2 20C2 20 5.5 17 12 17C18.5 17 22 20 22 20" stroke="currentColor" stroke-width="2" stroke-linecap="round" stroke-linejoin="round"/>
  <path d="M12 5C13.1046 5 14 4.10457 14 3C14 1.89543 13.1046 1 12 1C10.8954 1 10 1.89543 10 3C10 4.10457 10.8954 5 12 5Z" stroke="currentColor" stroke-width="2" stroke-linecap="round" stroke-linejoin="round"/>
</svg>
